<?xml version="1.0" encoding="utf-8"?>
<!-- Generator: Adobe Illustrator 24.3.0, SVG Export Plug-In . SVG Version: 6.00 Build 0)  -->
<svg version="1.1" id="Layer_1" xmlns="http://www.w3.org/2000/svg" xmlns:xlink="http://www.w3.org/1999/xlink" x="0px" y="0px"
	 viewBox="0 0 318 106" style="enable-background:new 0 0 318 106;" xml:space="preserve">
<style type="text/css">
	.st0{fill:#FFFFFF;}
	.st1{fill:#009BBF;}
	.st2{fill:#FFFFFF;stroke:#FFFFFF;stroke-miterlimit:10;}
	.st3{fill:none;}
	.st4{fill:#999999;}
	.st5{fill:#00ADEE;}
	.st6{fill:#FF0000;}
</style>
<g>
	<path class="st0" d="M114,64.6H92.2v-8.5h5.5V30.6h-5.5v-8.5H114v8.5h-5.5v25.5h5.5L114,64.6L114,64.6z"/>
	<path class="st1" d="M143.3,64.6l-10.9-6.2V30.6h-8.1l-4.7-8.5H156l-4.7,8.5h-8.1L143.3,64.6L143.3,64.6z"/>
	<g>
		<path class="st0" d="M115.4,24.1l-25.1,0.2v-9l11.5,4.6c0.7,0.3,1.4,0.3,2.1,0l11.5-4.6V24.1z"/>
		<polygon class="st0" points="87.3,20.5 86.6,20.5 86.6,10.4 87.3,10.6 		"/>
		<circle class="st0" cx="86.9" cy="22.3" r="1.2"/>
		<path class="st0" d="M89.1,30.5c-1,1.1-3.4,1.1-4.3,0l1.3-6.6c0.6,0.2,1.1,0.3,1.6,0L89.1,30.5z"/>
		<path class="st2" d="M102.8,21L84,11.8c-0.2-0.1-0.2-0.6,0-0.7L102.8,2l18.9,9.2c0.2,0.1,0.2,0.5,0,0.6L102.8,21z"/>
	</g>
	<polygon class="st3" points="47.8,29.3 44.2,29.3 44.2,25.8 40.7,25.8 40.7,29.3 40.7,32.4 47.8,32.4 	"/>
	<rect x="54.9" y="25.8" class="st3" width="3.5" height="3.2"/>
	<rect x="40.6" y="35.6" class="st3" width="3.7" height="3.1"/>
	<rect x="26.4" y="39.1" class="st3" width="7.1" height="6.2"/>
	<rect x="33.5" y="32.6" class="st3" width="7.2" height="2.8"/>
	<path class="st3" d="M40.6,48.8v8.5h8.3v0h7.7c0.8,0,1.6,0,2.4,0l0,0l0,0c5.7,0.1,9.8,0,12.4,0c0,0,0.1,0,0.1,0
		c0.9,0,1.7-0.3,2.2-0.8s0.8-1.3,0.8-2.2v-5.5h-14c-0.5,0-1.1,0-1.6,0v0.1L40.6,48.8L40.6,48.8z"/>
	<polygon class="st3" points="58.6,45.5 59,45.5 62,45.5 62,42.2 59,42.2 58.6,42.2 	"/>
	<polygon class="st3" points="51.2,42.5 49.2,42.5 40.7,42.5 40.7,45.5 50.9,45.5 51.2,45.5 	"/>
	<rect x="37.1" y="39.1" class="st3" width="3.3" height="3.1"/>
	<rect x="51.3" y="58.7" class="st3" width="4" height="3.4"/>
	<rect x="28.2" y="47.7" class="st3" width="2.5" height="5.7"/>
	<rect x="36.3" y="45.5" class="st3" width="3.2" height="1.8"/>
	<rect x="31.5" y="48" class="st3" width="3.6" height="5.5"/>
	<rect x="36.9" y="50.3" class="st3" width="2.3" height="3.5"/>
	<rect x="33.2" y="22.6" class="st1" width="3.9" height="3.3"/>
	<rect x="37.2" y="62" class="st1" width="3.4" height="2.4"/>
	<path class="st4" d="M59,57.3L59,57.3L59,57.3z"/>
	<path class="st1" d="M82.6,42.4c-1.9-1.9-4.8-2.8-8.8-2.8H63c-2.4,0-3.6-1.2-3.6-3.6v-1.2c0-2.4,1.2-3.6,3.6-3.6h18.9v-8.5l-23.5,0
		c-0.5,0,0,0-0.5,0c-3.5,0-5,1.3-6.6,2.9c-1.9,1.9-2.9,5-2.9,9.3v1.8c0,2.3,0.3,4.3,0.9,5.9h2v3H51c0.1,0.1,0.2,0.2,0.3,0.3
		c1.7,1.7,4.2,2.6,7.7,2.8c0.5,0,1,0,1.6,0h14v5.5c0,0.9-0.3,1.7-0.8,2.2c-0.6,0.5-1.3,0.8-2.2,0.8c0,0-0.1,0-0.1,0
		c-2.6,0-6.8,0.1-12.4,0l0,0H48.9v7.8c5.4,0.2,6.4,0.2,10.1,0.2c0.8,0,1.7,0,2.8,0l5.6,0.2c1.5,0.1,3,0.1,4.5,0.1c0.7,0,1.4,0,2.1,0
		c4,0,6.9-0.9,8.8-2.8c1.9-1.9,2.8-4.8,2.8-8.8v-3C85.4,47.2,84.5,44.3,82.6,42.4z M58.4,29.1h-3.5v-3.2h3.5V29.1z M62,45.5h-3h-0.3
		v-3.3H59h3V45.5z M55.2,62.1h-4v-3.4h4V62.1z"/>
	<path class="st5" d="M48.9,57.2L48.9,57.2l10.1,0c-0.8,0-1.6,0-2.4,0H48.9z"/>
	<rect x="36.9" y="50.3" class="st3" width="2.3" height="3.5"/>
	<rect x="31.5" y="48" class="st3" width="3.6" height="5.5"/>
	<rect x="36.3" y="45.5" class="st3" width="3.2" height="1.8"/>
	<rect x="26.4" y="39.1" class="st3" width="7.1" height="6.2"/>
	<rect x="28.2" y="47.7" class="st3" width="2.5" height="5.7"/>
	<rect x="37.1" y="39.1" class="st3" width="3.3" height="3.1"/>
	<rect x="33.5" y="32.6" class="st3" width="7.2" height="2.8"/>
	<polygon class="st3" points="44.2,25.8 40.7,25.8 40.7,29.3 40.7,32.4 47.8,32.4 47.8,29.3 44.2,29.3 	"/>
	<rect x="40.6" y="35.6" class="st3" width="3.7" height="3.1"/>
	<path class="st1" d="M59,22.7L59,22.7l-11.1-0.1v3.2h-3.5v-3.2h-4.1v3.3h-3.2v3.2h-3.9v3.3H30v-9.9h-5.6v2.8h1.8v3.7h-1.8v3.2
		c1.2,0,4.3,0,5.5,0v3.5h-3.5v3h-2v19.9h2v-3.3h3.6v3.3h7.3v-3.3h3.2v3.3h7.2V62H44v3.3h15c-3.7,0-4.7-0.1-10.1-0.2v-7.8h-8.3v-8.5
		H59v-0.1c-3.7-0.3-6.2-1.2-8-3.2H40.7v-3h8.5c-0.8-2-0.9-5.2-0.8-7.7C48.4,26.9,51.3,23.2,59,22.7z M26.4,39.1h7.1v6.2h-7.1V39.1z
		 M30.7,53.4h-2.5v-5.7h2.5V53.4z M35.1,53.6h-3.6V48h3.6V53.6z M39.2,53.9h-2.3v-3.5h2.3V53.9z M39.5,47.3h-3.2v-1.8h3.2V47.3z
		 M40.4,42.2h-3.3v-3.1h3.3V42.2z M33.5,35.4v-2.8h7.2v2.8H33.5z M44.3,38.7h-3.7v-3.1h3.7V38.7z M47.8,32.4h-7.1v-3.2v-3.4h3.5v3.4
		h3.6L47.8,32.4L47.8,32.4z"/>
	<rect x="29.9" y="62" class="st1" width="3.9" height="3.3"/>
	<rect x="29.9" y="58.7" class="st5" width="0" height="0.1"/>
	<path class="st1" d="M168.1,64.7v-5.9c-3.7,1.9-7.3,3.9-10.7,5.9H168.1z"/>
	<path class="st1" d="M183.3,64.7h10.9V46.5c-3.7,1.6-7.4,3.2-10.9,4.9L183.3,64.7L183.3,64.7z"/>
	<path class="st1" d="M168.1,49.3h15.2v0.3c3.4-1.6,7-3.2,10.9-4.9V26.9l-5.3-4.8l-5.6,4.8v14.9h-15.2V26.9l-5.3-4.8l-5.6,4.8v36.6
		c3.1-1.9,6.7-4,10.9-6.3L168.1,49.3L168.1,49.3z"/>
	<path class="st0" d="M205.4,25.6l-5.2-3.6l-4.5,3.6v18.5c3.1-1.3,6.3-2.6,9.7-4V25.6z"/>
	<path class="st0" d="M229.7,22l-4.6,3.6v7.1c1.5-0.5,3.1-1.1,4.7-1.6c1.6-0.6,3.2-1.1,4.9-1.7v-3.8L229.7,22z"/>
	<path class="st0" d="M229.7,32.6c-1.6,0.6-3.1,1.1-4.7,1.7v17.2c0,1.5-0.2,2.9-0.7,4.1s-1.1,2.2-1.9,3c-0.8,0.8-1.9,1.5-3.1,1.9
		c-0.6,0.2-1.1,0.3-1.8,0.5c-0.7,0.1-1.5,0.2-2.3,0.2c-1.5,0-2.9-0.2-4.1-0.6c-1.2-0.4-2.3-1-3.1-1.9c-0.9-0.8-1.5-1.9-2-3.2
		c-0.5-1.3-0.7-2.8-0.7-4.5v-9.1c-3.2,1.3-6.5,2.6-9.7,4v5.9c0,2.8,0.4,5.3,1.3,7.3s2.1,3.8,3.8,5.2s3.6,2.4,6,3.1s5.1,1,8.1,1
		c3.2,0,6-0.4,8.5-1.2c2.4-0.8,4.5-1.9,6.2-3.4s2.9-3.3,3.8-5.4s1.3-4.5,1.3-7.2V30.9C233,31.5,231.3,32,229.7,32.6z"/>
	<path class="st3" d="M259.2,47.6h-12.1v8.5h12.1c2.4,0,3.6-1.2,3.6-3.6v-1.2C262.9,48.8,261.7,47.6,259.2,47.6z"/>
	<path class="st3" d="M261.1,35.5v-1.2c0-2.4-1.2-3.6-3.6-3.6h-10.3v8.5h10.3C259.9,39.1,261.1,37.9,261.1,35.5z"/>
	<path class="st1" d="M266.5,42.1c1.5-0.6,2.8-1.7,3.9-3.2c1-1.5,1.6-3.5,1.6-5.9c0-3.7-0.9-6.4-2.8-8.2c-1.8-1.7-4.5-2.6-8.2-2.7
		c-8,2.5-16.3,5.3-24.8,8.2v34.3h26.1c4,0,6.9-0.9,8.8-2.8c1.9-1.9,2.8-4.8,2.8-8.8c0-1.7-0.2-3.1-0.6-4.4
		C272,45.2,269.8,43,266.5,42.1z M247.1,30.6h10.3c2.4,0,3.6,1.2,3.6,3.6v1.2c0,2.4-1.2,3.6-3.6,3.6h-10.3V30.6z M262.9,52.5
		c0,2.4-1.2,3.6-3.6,3.6h-12.1v-8.5h12.1c2.4,0,3.6,1.2,3.6,3.6V52.5z"/>
	<path class="st1" d="M238.9,22.1l-2.7,2.7v4c6.6-2.2,13.6-4.5,21-6.7H238.9z"/>
	<path class="st3" d="M279.9,8.9h7.6c1.2,0,2.1,0.3,2.7,1c0.6,0.6,0.9,1.5,1,2.6c0.5-0.1,1.1-0.3,1.6-0.4V9.3c0-0.6-0.2-1.1-0.6-1.5
		c-0.4-0.4-0.9-0.6-1.5-0.6h-11c-0.6,0-1.1,0.2-1.5,0.6c-0.4,0.4-0.6,0.9-0.6,1.5v6.8c0.7-0.2,1.5-0.4,2.2-0.6L279.9,8.9L279.9,8.9z
		"/>
	<path class="st3" d="M287,13.1v-0.6c0-0.7-0.4-1-1-1h-1.9v2.7h0.5c0.8-0.2,1.6-0.4,2.5-0.7C287,13.4,287,13.3,287,13.1z"/>
	<path class="st3" d="M290.6,15.1c-0.4,0.5-0.8,0.9-1.4,1.1l1.9,3.6h-4.3l-1.6-3h-1.2v3h-4.1v-3.5c-0.7,0.2-1.5,0.4-2.2,0.7v2.4
		c0,0.6,0.2,1.1,0.6,1.5c0.4,0.4,0.9,0.6,1.5,0.6h11c0.6,0,1.1-0.2,1.5-0.6c0.4-0.4,0.6-0.9,0.6-1.5v-6.9c-0.5,0.1-1.1,0.3-1.6,0.5
		C291.2,13.9,291,14.6,290.6,15.1z"/>
	<path class="st0" d="M287.5,8.9h-7.6v6.6c1.5-0.4,3.1-0.9,4.6-1.3h-0.5v-2.7h1.9c0.7,0,1,0.4,1,1v0.6c0,0.1,0,0.3,0,0.4
		c1.4-0.4,2.8-0.8,4.2-1.1c0-1.1-0.4-2-1-2.6C289.6,9.2,288.7,8.9,287.5,8.9z"/>
	<path class="st0" d="M292.8,12.5v6.8c0,0.6-0.2,1.1-0.6,1.5c-0.4,0.4-0.9,0.6-1.5,0.6h-11c-0.6,0-1.1-0.2-1.5-0.6
		c-0.4-0.4-0.6-0.9-0.6-1.5v-2.4c-1.5,0.4-3,0.9-4.5,1.3v0.2c0,2.1,0.6,3.7,1.7,4.8c1.1,1.1,2.7,1.7,4.8,1.7h11
		c2.1,0,3.7-0.6,4.8-1.7c1.1-1.1,1.7-2.7,1.7-4.8v-7.2C295.8,11.7,294.4,12.1,292.8,12.5z"/>
	<path class="st0" d="M279.9,19.8h4.1v-3h1.2l1.6,3h4.3l-1.9-3.6c0.5-0.2,1-0.6,1.4-1.1c0.4-0.5,0.6-1.2,0.6-2.1
		c-3.6,1-7.3,2.1-11.3,3.3V19.8z"/>
	<path class="st0" d="M277.7,9.3c0-0.6,0.2-1.1,0.6-1.5c0.4-0.4,0.9-0.6,1.5-0.6h11c0.6,0,1.1,0.2,1.5,0.6c0.4,0.4,0.6,0.9,0.6,1.5
		V12c1.5-0.4,3-0.8,4.5-1.2v-0.6c0-2.1-0.6-3.7-1.7-4.8c-1.1-1.1-2.7-1.7-4.8-1.7h-11c-2.1,0-3.7,0.6-4.8,1.7
		c-1.1,1.1-1.7,2.7-1.7,4.8v7.2c1.5-0.4,3-0.8,4.5-1.3L277.7,9.3L277.7,9.3z"/>
</g>
<g>
	<path class="st6" d="M31.9,85.6c-0.1-0.2-0.2-0.5-0.3-0.7s-0.3-0.3-0.5-0.5c-0.2-0.1-0.4-0.2-0.6-0.3s-0.5-0.1-0.8-0.1
		c-0.5,0-1,0.1-1.4,0.4c-0.4,0.3-0.7,0.6-0.9,1.1c-0.2,0.5-0.3,1.1-0.3,1.8s0.1,1.3,0.3,1.8s0.5,0.9,0.9,1.1s0.9,0.4,1.4,0.4
		c0.5,0,0.9-0.1,1.2-0.3c0.3-0.2,0.6-0.4,0.8-0.7s0.3-0.7,0.3-1.1l0.4,0.1h-2.6V87h4.2v1.3c0,0.9-0.2,1.7-0.6,2.3
		c-0.4,0.6-0.9,1.1-1.5,1.5s-1.4,0.5-2.3,0.5c-1,0-1.8-0.2-2.5-0.6c-0.7-0.4-1.3-1-1.7-1.8S25,88.5,25,87.4c0-0.8,0.1-1.6,0.4-2.2
		s0.6-1.2,1-1.7c0.4-0.4,0.9-0.8,1.5-1c0.6-0.2,1.2-0.3,1.9-0.3c0.6,0,1.1,0.1,1.6,0.2c0.5,0.2,0.9,0.4,1.3,0.7
		c0.4,0.3,0.7,0.7,0.9,1.1c0.2,0.4,0.4,0.9,0.5,1.4L31.9,85.6L31.9,85.6z"/>
	<path class="st6" d="M45,87.4c0,1.1-0.2,2.1-0.6,2.8c-0.4,0.8-1,1.4-1.7,1.8s-1.5,0.6-2.4,0.6c-0.9,0-1.7-0.2-2.4-0.6
		s-1.3-1-1.7-1.8s-0.6-1.7-0.6-2.8c0-1.1,0.2-2.1,0.6-2.8s1-1.4,1.7-1.8s1.5-0.6,2.4-0.6s1.7,0.2,2.4,0.6s1.3,1,1.7,1.8
		S45,86.3,45,87.4z M42.8,87.4c0-0.7-0.1-1.3-0.3-1.8s-0.5-0.9-0.9-1.1c-0.4-0.3-0.8-0.4-1.3-0.4c-0.5,0-1,0.1-1.3,0.4
		c-0.4,0.3-0.7,0.6-0.9,1.1s-0.3,1.1-0.3,1.8s0.1,1.3,0.3,1.8s0.5,0.9,0.9,1.1c0.4,0.3,0.8,0.4,1.3,0.4c0.5,0,1-0.1,1.3-0.4
		c0.4-0.3,0.7-0.6,0.9-1.1S42.8,88.1,42.8,87.4z"/>
	<path class="st6" d="M47.8,82.3l2.4,7.8h0.1l2.4-7.8h2.4l-3.5,10.2h-2.8l-3.5-10.2H47.8z"/>
	<path class="st6" d="M56,84.1v-1.8h8.3v1.8h-3.1v8.4h-2.1v-8.4H56z"/>
	<path class="st6" d="M66.4,92.6c-0.3,0-0.6-0.1-0.8-0.3c-0.2-0.2-0.3-0.5-0.3-0.8s0.1-0.6,0.3-0.8c0.2-0.2,0.5-0.3,0.8-0.3
		c0.3,0,0.6,0.1,0.8,0.3c0.2,0.2,0.3,0.5,0.3,0.8c0,0.2-0.1,0.4-0.2,0.6s-0.2,0.3-0.4,0.4C66.8,92.6,66.6,92.6,66.4,92.6z"/>
	<path class="st6" d="M72,92.5V82.3h4c0.8,0,1.4,0.1,1.9,0.4c0.5,0.3,0.9,0.7,1.2,1.2c0.3,0.5,0.4,1.1,0.4,1.8
		c0,0.7-0.1,1.3-0.4,1.8s-0.7,0.9-1.2,1.1c-0.6,0.3-1.2,0.4-2,0.4h-2.7v-1.7h2.3c0.4,0,0.8-0.1,1-0.2c0.3-0.1,0.5-0.3,0.6-0.5
		s0.2-0.5,0.2-0.8c0-0.3-0.1-0.6-0.2-0.9s-0.3-0.4-0.6-0.5c-0.3-0.1-0.6-0.2-1-0.2h-1.4v8.5L72,92.5L72,92.5z M77.5,87.8l2.5,4.7
		h-2.3l-2.4-4.7L77.5,87.8L77.5,87.8z"/>
	<path class="st6" d="M81.1,92.5V82.3h6.8v1.8h-4.7v2.4h4.3v1.8h-4.3v2.4H88v1.8L81.1,92.5L81.1,92.5z"/>
	<path class="st6" d="M96.3,85.6c-0.1-0.2-0.2-0.5-0.3-0.7s-0.3-0.3-0.5-0.5c-0.2-0.1-0.4-0.2-0.6-0.3s-0.5-0.1-0.8-0.1
		c-0.5,0-1,0.1-1.4,0.4s-0.7,0.6-0.9,1.1c-0.2,0.5-0.3,1.1-0.3,1.8s0.1,1.3,0.3,1.8s0.5,0.9,0.9,1.1c0.4,0.3,0.8,0.4,1.4,0.4
		c0.5,0,0.9-0.1,1.2-0.3c0.3-0.2,0.6-0.4,0.8-0.7s0.3-0.7,0.3-1.1l0.4,0.1h-2.6V87h4.2v1.3c0,0.9-0.2,1.7-0.6,2.3
		c-0.4,0.6-0.9,1.1-1.6,1.5s-1.4,0.5-2.3,0.5c-0.9,0-1.8-0.2-2.5-0.6c-0.7-0.4-1.3-1-1.7-1.8s-0.6-1.7-0.6-2.8
		c0-0.8,0.1-1.6,0.4-2.2s0.6-1.2,1-1.7c0.4-0.4,0.9-0.8,1.5-1c0.6-0.2,1.2-0.3,1.9-0.3c0.6,0,1.1,0.1,1.6,0.2
		c0.5,0.2,0.9,0.4,1.3,0.7c0.4,0.3,0.7,0.7,0.9,1.1c0.2,0.4,0.4,0.9,0.5,1.4L96.3,85.6L96.3,85.6z"/>
	<path class="st6" d="M103.8,92.5h-3.6V82.3h3.6c1,0,1.9,0.2,2.6,0.6s1.3,1,1.7,1.8c0.4,0.8,0.6,1.7,0.6,2.7c0,1.1-0.2,2-0.6,2.8
		c-0.4,0.8-1,1.3-1.7,1.8C105.7,92.3,104.8,92.5,103.8,92.5z M102.3,90.7h1.3c0.6,0,1.2-0.1,1.6-0.3c0.4-0.2,0.8-0.6,1-1.1
		c0.2-0.5,0.3-1.1,0.3-1.9s-0.1-1.4-0.3-1.8c-0.2-0.5-0.5-0.8-1-1.1s-1-0.3-1.6-0.3h-1.4V90.7z"/>
	<path class="st6" d="M110.8,92.6c-0.3,0-0.6-0.1-0.8-0.3c-0.2-0.2-0.3-0.5-0.3-0.8s0.1-0.6,0.3-0.8c0.2-0.2,0.5-0.3,0.8-0.3
		c0.3,0,0.6,0.1,0.8,0.3c0.2,0.2,0.3,0.5,0.3,0.8c0,0.2-0.1,0.4-0.2,0.6s-0.2,0.3-0.4,0.4C111.2,92.6,111,92.6,110.8,92.6z"/>
	<path class="st0" d="M119.2,79v16.8h-2V79H119.2z"/>
	<path class="st0" d="M127,82.3v10.2h-2.1V82.3H127z"/>
	<path class="st0" d="M134.3,85.2c0-0.4-0.2-0.7-0.5-0.9c-0.3-0.2-0.7-0.3-1.2-0.3c-0.4,0-0.6,0.1-0.9,0.2s-0.4,0.2-0.6,0.4
		s-0.2,0.4-0.2,0.6c0,0.2,0,0.3,0.1,0.5c0.1,0.1,0.2,0.2,0.4,0.3c0.1,0.1,0.3,0.2,0.5,0.2c0.2,0.1,0.4,0.1,0.6,0.2l0.9,0.2
		c0.4,0.1,0.8,0.2,1.2,0.4c0.4,0.2,0.7,0.4,1,0.6s0.5,0.5,0.6,0.9c0.1,0.3,0.2,0.7,0.2,1.1c0,0.6-0.2,1.2-0.5,1.6
		c-0.3,0.5-0.8,0.8-1.3,1.1s-1.3,0.4-2.1,0.4c-0.8,0-1.5-0.1-2.1-0.4s-1.1-0.6-1.4-1.1s-0.5-1.1-0.5-1.8h2.1c0,0.3,0.1,0.6,0.3,0.9
		s0.4,0.4,0.7,0.5s0.6,0.2,1,0.2c0.4,0,0.7-0.1,0.9-0.2s0.5-0.2,0.6-0.4c0.1-0.2,0.2-0.4,0.2-0.7c0-0.2-0.1-0.4-0.2-0.6
		c-0.1-0.2-0.3-0.3-0.6-0.4s-0.6-0.2-0.9-0.3l-1.1-0.3c-0.9-0.2-1.5-0.5-2-1c-0.5-0.4-0.7-1.1-0.7-1.8c0-0.6,0.2-1.2,0.5-1.6
		s0.8-0.8,1.4-1.1s1.2-0.4,2-0.4c0.8,0,1.4,0.1,2,0.4c0.6,0.3,1,0.6,1.3,1.1s0.5,1,0.5,1.6L134.3,85.2L134.3,85.2z"/>
	<path class="st0" d="M147.1,87.4c0,1.1-0.2,2.1-0.6,2.8c-0.4,0.8-1,1.4-1.7,1.8s-1.5,0.6-2.4,0.6c-0.9,0-1.7-0.2-2.4-0.6
		s-1.3-1-1.7-1.8s-0.6-1.7-0.6-2.8c0-1.1,0.2-2.1,0.6-2.8s1-1.4,1.7-1.8s1.5-0.6,2.4-0.6s1.7,0.2,2.4,0.6s1.3,1,1.7,1.8
		C146.9,85.3,147.1,86.3,147.1,87.4z M145,87.4c0-0.7-0.1-1.3-0.3-1.8s-0.5-0.9-0.9-1.1c-0.4-0.3-0.8-0.4-1.4-0.4s-1,0.1-1.4,0.4
		c-0.4,0.3-0.7,0.6-0.9,1.1s-0.3,1.1-0.3,1.8s0.1,1.3,0.3,1.8s0.5,0.9,0.9,1.1c0.4,0.3,0.8,0.4,1.4,0.4s1-0.1,1.4-0.4
		c0.4-0.3,0.7-0.6,0.9-1.1C144.9,88.7,145,88.1,145,87.4z"/>
	<path class="st0" d="M156.6,86.6v1.7H152v-1.7H156.6z"/>
	<path class="st0" d="M165.2,82.1c0.5,0,1,0.1,1.5,0.3c0.5,0.2,0.9,0.5,1.3,0.8c0.4,0.4,0.7,0.9,0.9,1.5s0.3,1.4,0.3,2.3
		c0,0.9-0.1,1.6-0.3,2.3c-0.2,0.7-0.5,1.3-0.8,1.7c-0.4,0.5-0.8,0.8-1.3,1.1s-1.1,0.4-1.7,0.4c-0.7,0-1.3-0.1-1.8-0.4
		s-0.9-0.6-1.2-1.1c-0.3-0.5-0.5-1-0.6-1.5h2.1c0.1,0.4,0.2,0.7,0.5,0.9c0.3,0.2,0.6,0.3,1,0.3c0.7,0,1.2-0.3,1.5-0.9
		s0.5-1.4,0.5-2.4h-0.1c-0.1,0.3-0.4,0.6-0.6,0.8s-0.6,0.4-0.9,0.5s-0.7,0.2-1.1,0.2c-0.6,0-1.1-0.1-1.6-0.4s-0.8-0.7-1.1-1.2
		s-0.4-1.1-0.4-1.7c0-0.7,0.1-1.3,0.5-1.8s0.8-1,1.3-1.3S164.5,82.1,165.2,82.1z M165.2,83.8c-0.3,0-0.6,0.1-0.9,0.2
		c-0.3,0.2-0.5,0.4-0.6,0.6c-0.1,0.3-0.2,0.6-0.2,0.9c0,0.3,0.1,0.6,0.2,0.9s0.4,0.5,0.6,0.6c0.2,0.2,0.5,0.2,0.9,0.2
		c0.2,0,0.5-0.1,0.7-0.1c0.2-0.1,0.4-0.2,0.6-0.4s0.3-0.4,0.4-0.6c0.1-0.2,0.1-0.4,0.1-0.7c0-0.3-0.1-0.6-0.2-0.9s-0.4-0.5-0.6-0.7
		S165.6,83.8,165.2,83.8z"/>
	<path class="st0" d="M174.7,92.7c-0.9,0-1.6-0.2-2.2-0.6c-0.6-0.4-1.1-1-1.4-1.8c-0.3-0.8-0.5-1.8-0.5-2.9c0-1.1,0.2-2.1,0.5-2.8
		c0.3-0.8,0.8-1.4,1.4-1.8s1.3-0.6,2.2-0.6s1.6,0.2,2.2,0.6c0.6,0.4,1.1,1,1.4,1.8s0.5,1.7,0.5,2.8c0,1.1-0.2,2.1-0.5,2.9
		c-0.3,0.8-0.8,1.4-1.4,1.8C176.3,92.5,175.6,92.7,174.7,92.7z M174.7,90.9c0.6,0,1-0.3,1.4-0.9s0.5-1.5,0.5-2.7
		c0-0.8-0.1-1.4-0.2-1.9c-0.2-0.5-0.4-0.9-0.7-1.2s-0.6-0.4-1-0.4c-0.6,0-1,0.3-1.4,0.9c-0.3,0.6-0.5,1.5-0.5,2.6
		c0,0.8,0.1,1.4,0.2,2c0.2,0.5,0.4,0.9,0.7,1.2C174,90.8,174.3,90.9,174.7,90.9z"/>
	<path class="st0" d="M184.2,92.7c-0.9,0-1.6-0.2-2.2-0.6c-0.6-0.4-1.1-1-1.4-1.8c-0.3-0.8-0.5-1.8-0.5-2.9c0-1.1,0.2-2.1,0.5-2.8
		c0.3-0.8,0.8-1.4,1.4-1.8s1.3-0.6,2.2-0.6s1.6,0.2,2.2,0.6c0.6,0.4,1.1,1,1.4,1.8s0.5,1.7,0.5,2.8c0,1.1-0.2,2.1-0.5,2.9
		c-0.3,0.8-0.8,1.4-1.4,1.8C185.8,92.5,185.1,92.7,184.2,92.7z M184.2,90.9c0.6,0,1-0.3,1.4-0.9s0.5-1.5,0.5-2.7
		c0-0.8-0.1-1.4-0.2-1.9c-0.2-0.5-0.4-0.9-0.7-1.2s-0.6-0.4-1-0.4c-0.6,0-1,0.3-1.4,0.9c-0.3,0.6-0.5,1.5-0.5,2.6
		c0,0.8,0.1,1.4,0.2,2c0.2,0.5,0.4,0.9,0.7,1.2C183.5,90.8,183.9,90.9,184.2,90.9z"/>
	<path class="st0" d="M194.2,82.3v10.2h-2.1v-8.2H192l-2.3,1.5v-1.9l2.5-1.6C192.2,82.3,194.2,82.3,194.2,82.3z"/>
	<path class="st0" d="M197.9,86.3c-0.3,0-0.6-0.1-0.8-0.3c-0.2-0.2-0.4-0.5-0.4-0.8s0.1-0.6,0.4-0.8s0.5-0.3,0.8-0.3
		s0.6,0.1,0.8,0.3s0.4,0.5,0.4,0.8c0,0.2-0.1,0.4-0.2,0.6c-0.1,0.2-0.2,0.3-0.4,0.4C198.3,86.2,198.1,86.3,197.9,86.3z M197.9,91.3
		c-0.3,0-0.6-0.1-0.8-0.3c-0.2-0.2-0.4-0.5-0.4-0.8s0.1-0.6,0.4-0.8c0.2-0.2,0.5-0.3,0.8-0.3s0.6,0.1,0.8,0.3
		c0.2,0.2,0.4,0.5,0.4,0.8c0,0.2-0.1,0.4-0.2,0.6c-0.1,0.2-0.2,0.3-0.4,0.4C198.3,91.3,198.1,91.3,197.9,91.3z"/>
	<path class="st0" d="M200.7,92.5V91l3.6-3.4c0.3-0.3,0.6-0.6,0.8-0.8s0.4-0.5,0.5-0.7c0.1-0.2,0.2-0.5,0.2-0.8
		c0-0.3-0.1-0.6-0.2-0.8c-0.1-0.2-0.3-0.4-0.6-0.5c-0.2-0.1-0.5-0.2-0.8-0.2c-0.3,0-0.6,0.1-0.8,0.2c-0.2,0.1-0.4,0.3-0.5,0.5
		s-0.2,0.5-0.2,0.8h-2c0-0.7,0.1-1.2,0.4-1.7s0.7-0.9,1.3-1.1s1.2-0.4,1.9-0.4c0.7,0,1.4,0.1,1.9,0.4s0.9,0.6,1.2,1.1
		c0.3,0.5,0.4,1,0.4,1.6c0,0.4-0.1,0.8-0.2,1.1c-0.1,0.4-0.4,0.8-0.8,1.2c-0.4,0.5-0.9,1-1.6,1.7l-1.5,1.5v0.1h4.2v1.8H200.7z"/>
	<path class="st0" d="M213.4,92.7c-0.9,0-1.6-0.2-2.2-0.6c-0.6-0.4-1.1-1-1.4-1.8c-0.3-0.8-0.5-1.8-0.5-2.9s0.2-2.1,0.5-2.8
		c0.3-0.8,0.8-1.4,1.4-1.8s1.3-0.6,2.2-0.6s1.6,0.2,2.2,0.6c0.6,0.4,1.1,1,1.4,1.8s0.5,1.7,0.5,2.8c0,1.1-0.2,2.1-0.5,2.9
		c-0.3,0.8-0.8,1.4-1.4,1.8C215,92.5,214.3,92.7,213.4,92.7z M213.4,90.9c0.6,0,1-0.3,1.4-0.9s0.5-1.5,0.5-2.7
		c0-0.8-0.1-1.4-0.2-1.9c-0.2-0.5-0.4-0.9-0.7-1.2s-0.6-0.4-1-0.4c-0.6,0-1,0.3-1.4,0.9c-0.3,0.6-0.5,1.5-0.5,2.6
		c0,0.8,0.1,1.4,0.2,2c0.2,0.5,0.4,0.9,0.7,1.2C212.7,90.8,213.1,90.9,213.4,90.9z"/>
	<path class="st0" d="M223.4,82.3v10.2h-2.1v-8.2h-0.1l-2.3,1.5v-1.9l2.5-1.6C221.4,82.3,223.4,82.3,223.4,82.3z"/>
	<path class="st0" d="M229.5,92.7c-0.7,0-1.3-0.1-1.9-0.4s-1-0.6-1.3-1.1s-0.5-1-0.5-1.6h2.1c0,0.4,0.2,0.7,0.5,1
		c0.3,0.2,0.7,0.4,1.1,0.4c0.3,0,0.6-0.1,0.9-0.2s0.5-0.4,0.6-0.6s0.2-0.6,0.2-0.9s-0.1-0.7-0.2-0.9c-0.1-0.3-0.4-0.5-0.6-0.6
		s-0.6-0.2-0.9-0.2c-0.3,0-0.6,0.1-0.9,0.2s-0.5,0.3-0.6,0.5l-1.9-0.3l0.5-5.4h6.2v1.8h-4.4l-0.3,2.6h0.1c0.2-0.2,0.4-0.5,0.8-0.6
		s0.8-0.2,1.2-0.2c0.6,0,1.1,0.2,1.6,0.4c0.5,0.3,0.9,0.7,1.1,1.2s0.4,1.1,0.4,1.7c0,0.7-0.1,1.3-0.5,1.8s-0.8,0.9-1.3,1.3
		C230.9,92.5,230.2,92.7,229.5,92.7z"/>
	<path class="st0" d="M246.9,85.9h-2.2c0-0.3-0.1-0.5-0.2-0.8c-0.1-0.2-0.3-0.4-0.5-0.6c-0.2-0.2-0.4-0.3-0.7-0.4s-0.5-0.1-0.8-0.1
		c-0.5,0-1,0.1-1.4,0.4c-0.4,0.3-0.7,0.6-0.9,1.1c-0.2,0.5-0.3,1.1-0.3,1.8c0,0.7,0.1,1.3,0.3,1.8s0.5,0.9,0.9,1.1
		c0.4,0.2,0.8,0.4,1.3,0.4c0.3,0,0.6,0,0.8-0.1c0.2-0.1,0.5-0.2,0.6-0.3c0.2-0.2,0.4-0.3,0.5-0.5c0.1-0.2,0.2-0.5,0.3-0.7l2.2,0
		c-0.1,0.5-0.2,0.9-0.4,1.4c-0.2,0.4-0.5,0.8-0.9,1.2c-0.4,0.3-0.8,0.6-1.3,0.8s-1.1,0.3-1.7,0.3c-0.9,0-1.7-0.2-2.4-0.6
		s-1.3-1-1.7-1.8c-0.4-0.8-0.6-1.7-0.6-2.8c0-1.1,0.2-2.1,0.6-2.8c0.4-0.8,1-1.4,1.7-1.8s1.5-0.6,2.4-0.6c0.6,0,1.1,0.1,1.6,0.2
		s0.9,0.4,1.3,0.7s0.7,0.7,0.9,1.2C246.7,84.7,246.9,85.3,246.9,85.9z"/>
	<path class="st0" d="M251.9,92.7c-0.8,0-1.4-0.2-2-0.5s-1-0.8-1.3-1.4c-0.3-0.6-0.4-1.3-0.4-2.1c0-0.8,0.1-1.5,0.4-2.1
		s0.7-1.1,1.3-1.4s1.2-0.5,1.9-0.5c0.5,0,1,0.1,1.4,0.2s0.8,0.4,1.1,0.7c0.3,0.3,0.6,0.7,0.8,1.2s0.3,1.1,0.3,1.7v0.6H249v-1.3h4.4
		c0-0.3-0.1-0.6-0.2-0.8c-0.1-0.2-0.3-0.4-0.5-0.6s-0.5-0.2-0.8-0.2c-0.3,0-0.6,0.1-0.8,0.2c-0.2,0.2-0.4,0.3-0.6,0.6
		s-0.2,0.5-0.2,0.8v1.2c0,0.4,0.1,0.7,0.2,1s0.3,0.5,0.6,0.6c0.3,0.2,0.6,0.2,0.9,0.2c0.2,0,0.4,0,0.6-0.1s0.4-0.2,0.5-0.3
		c0.1-0.1,0.2-0.3,0.3-0.5l1.9,0.1c-0.1,0.5-0.3,0.9-0.6,1.2c-0.3,0.3-0.7,0.6-1.2,0.8C253,92.6,252.5,92.7,251.9,92.7z"/>
	<path class="st0" d="M256.7,92.5v-7.7h2v1.3h0.1c0.1-0.5,0.4-0.8,0.7-1.1c0.3-0.2,0.7-0.4,1.1-0.4c0.1,0,0.2,0,0.3,0
		c0.1,0,0.2,0,0.3,0.1v1.9c-0.1,0-0.2-0.1-0.4-0.1s-0.3,0-0.5,0c-0.3,0-0.6,0.1-0.8,0.2c-0.2,0.1-0.4,0.3-0.6,0.6s-0.2,0.5-0.2,0.8
		v4.3L256.7,92.5L256.7,92.5z"/>
	<path class="st0" d="M266.8,84.8v1.6h-4.5v-1.6H266.8z M263.2,83h2.1v7.2c0,0.2,0,0.3,0.1,0.5s0.1,0.2,0.2,0.2
		c0.1,0,0.2,0.1,0.4,0.1c0.1,0,0.2,0,0.3,0c0.1,0,0.2,0,0.2,0l0.3,1.6c-0.1,0-0.2,0.1-0.4,0.1s-0.4,0.1-0.7,0.1
		c-0.5,0-1-0.1-1.3-0.2c-0.4-0.2-0.7-0.4-0.9-0.7s-0.3-0.8-0.3-1.2L263.2,83L263.2,83z"/>
	<path class="st0" d="M269.2,83.8c-0.3,0-0.6-0.1-0.8-0.3s-0.3-0.5-0.3-0.8c0-0.3,0.1-0.5,0.3-0.8c0.2-0.2,0.5-0.3,0.8-0.3
		s0.6,0.1,0.8,0.3s0.3,0.5,0.3,0.8s-0.1,0.6-0.3,0.8C269.8,83.7,269.5,83.8,269.2,83.8z M268.1,92.5v-7.7h2.1v7.7H268.1z"/>
	<path class="st0" d="M276,84.8v1.6h-4.7v-1.6H276z M272.4,92.5v-8.2c0-0.6,0.1-1,0.3-1.4c0.2-0.4,0.5-0.6,0.9-0.8s0.8-0.3,1.3-0.3
		c0.3,0,0.6,0,0.9,0.1s0.5,0.1,0.6,0.1l-0.4,1.6c-0.1,0-0.2-0.1-0.3-0.1s-0.2,0-0.4,0c-0.3,0-0.5,0.1-0.6,0.2
		c-0.1,0.1-0.2,0.3-0.2,0.6v8.2L272.4,92.5L272.4,92.5z"/>
	<path class="st0" d="M278.3,83.8c-0.3,0-0.6-0.1-0.8-0.3s-0.3-0.5-0.3-0.8c0-0.3,0.1-0.5,0.3-0.8c0.2-0.2,0.5-0.3,0.8-0.3
		s0.6,0.1,0.8,0.3s0.3,0.5,0.3,0.8s-0.1,0.6-0.3,0.8C278.9,83.7,278.6,83.8,278.3,83.8z M277.2,92.5v-7.7h2.1v7.7H277.2z"/>
	<path class="st0" d="M284.5,92.7c-0.8,0-1.5-0.2-2-0.5s-1-0.8-1.3-1.4c-0.3-0.6-0.5-1.3-0.5-2.1c0-0.8,0.1-1.5,0.5-2.1
		c0.3-0.6,0.7-1.1,1.3-1.4s1.2-0.5,1.9-0.5c0.5,0,1,0.1,1.4,0.2s0.8,0.4,1.1,0.7c0.3,0.3,0.6,0.7,0.8,1.2c0.2,0.5,0.3,1.1,0.3,1.7
		v0.6h-6.4v-1.3h4.4c0-0.3-0.1-0.6-0.2-0.8c-0.1-0.2-0.3-0.4-0.5-0.6s-0.5-0.2-0.8-0.2c-0.3,0-0.6,0.1-0.8,0.2
		c-0.2,0.2-0.4,0.3-0.6,0.6s-0.2,0.5-0.2,0.8v1.2c0,0.4,0.1,0.7,0.2,1s0.3,0.5,0.6,0.6c0.3,0.2,0.6,0.2,0.9,0.2c0.2,0,0.5,0,0.6-0.1
		s0.4-0.2,0.5-0.3c0.1-0.1,0.2-0.3,0.3-0.5l1.9,0.1c-0.1,0.5-0.3,0.9-0.6,1.2c-0.3,0.3-0.7,0.6-1.2,0.8
		C285.6,92.6,285.1,92.7,284.5,92.7z"/>
	<path class="st0" d="M292.1,92.6c-0.6,0-1.1-0.2-1.6-0.4c-0.5-0.3-0.8-0.8-1.1-1.3c-0.3-0.6-0.4-1.3-0.4-2.2c0-0.9,0.1-1.6,0.4-2.2
		s0.6-1,1.1-1.3c0.5-0.3,1-0.4,1.5-0.4c0.4,0,0.8,0.1,1.1,0.2s0.5,0.3,0.7,0.5s0.3,0.4,0.4,0.6h0.1v-3.8h2.1v10.2h-2.1v-1.2h-0.1
		c-0.1,0.2-0.2,0.4-0.4,0.6c-0.2,0.2-0.4,0.4-0.7,0.5C292.9,92.6,292.5,92.6,292.1,92.6z M292.8,90.9c0.3,0,0.6-0.1,0.9-0.3
		c0.2-0.2,0.4-0.4,0.5-0.8c0.1-0.3,0.2-0.7,0.2-1.2s-0.1-0.8-0.2-1.2s-0.3-0.6-0.5-0.8c-0.2-0.2-0.5-0.3-0.9-0.3s-0.6,0.1-0.9,0.3
		c-0.2,0.2-0.4,0.4-0.5,0.8c-0.1,0.3-0.2,0.7-0.2,1.2c0,0.4,0.1,0.8,0.2,1.2c0.1,0.3,0.3,0.6,0.5,0.8S292.4,90.9,292.8,90.9z"/>
</g>
</svg>
